<?xml version="1.0" encoding="UTF-8"?><svg id="Layer_1" xmlns="http://www.w3.org/2000/svg" viewBox="0 0 375.56 120.47"><defs><style>.cls-1{fill:#0073e0;}.cls-2{fill:#002769;}</style></defs><g><g><polygon class="cls-2" points="56.28 53.03 32.81 91.59 9.35 53.03 0 53.03 0 118.65 13.21 118.65 13.21 83.34 28.16 107.82 28.26 107.98 37.36 107.98 52.42 83.34 52.42 118.65 65.63 118.65 65.63 53.03 56.28 53.03"/><path class="cls-2" d="M100.19,78.94c-5.75-2.29-10.72-4.26-10.72-8.31,0-4.64,4.86-6.71,9.68-6.71,3.95,0,8.26,1.64,10.99,4.18l.29,.27,6.91-9.87-.27-.2c-5.69-4.22-11.74-6.19-19.04-6.19-10.55,0-21.77,6.53-21.77,18.62,0,6.46,3.06,11.38,9.35,15.04,2.72,1.59,5.72,2.77,8.63,3.92,6.43,2.53,11.98,4.72,11.98,10.26,0,4.61-3.75,7.82-9.12,7.82s-11.05-2.63-15.06-7.03l-.25-.27-8.66,9.05,.26,.24c7.02,6.43,15.21,9.83,23.7,9.83,12.52,0,22.33-8.71,22.33-19.82,0-13.17-10.67-17.41-19.24-20.82Z"/><polygon class="cls-2" points="181.94 60.13 173.02 51.21 140.18 84.05 140.18 53.03 126.98 53.03 126.98 118.65 140.18 118.65 140.18 87.63 173.02 120.47 181.94 111.55 156.23 85.84 181.94 60.13"/></g><g><g><path class="cls-2" d="M270.67,65.4c4.61,0,8.23-3.53,8.23-8.04s-3.61-8.04-8.23-8.04-8.23,3.53-8.23,8.04,3.61,8.04,8.23,8.04Z"/><polygon class="cls-2" points="264.07 118.65 277.27 118.65 277.27 116.09 277.27 72.97 264.07 72.97 264.07 118.65"/></g><polygon class="cls-2" points="256.6 60.13 247.68 51.21 214.85 84.05 214.85 53.03 201.64 53.03 201.64 118.65 214.85 118.65 214.85 87.63 247.68 120.47 256.6 111.55 230.9 85.84 256.6 60.13"/><path class="cls-2" d="M360.57,90.44c-3.81-1.26-6.81-2.26-6.81-4.23,0-2.25,3-3.28,5.78-3.28,3.71,0,7.01,1.89,8.72,3.21l6.02-9.28c-2.99-2.43-9.49-4.81-15.67-4.81-11.43,0-17.6,7.39-17.6,14.35,0,8.84,7.85,11.54,14.16,13.7,4.1,1.41,7.64,2.62,7.64,5.13,0,1.97-2.33,3.46-5.41,3.46-4.51,0-9.41-1.73-12.4-4.63l-6.25,9.22c5.15,3.96,12.19,6.29,18.56,6.29,11.98,0,18.25-7.17,18.25-14.26,0-9.91-8.66-12.78-14.99-14.88Z"/><path class="cls-2" d="M332.97,51.21h-13.21v24.63c-3.45-2.52-7.59-3.8-12.32-3.8-12.57,0-22.42,10.46-22.42,23.81,0,5.96,2.07,11.64,5.84,15.99,4.16,4.84,10.6,7.73,17.24,7.73,4.58,0,8.67-1.39,12.16-4.15l.03,3.22h12.7V51.21Zm-13.21,52.33c-2.6,3.29-6.63,5.25-10.97,5.25-6.95,0-11.8-5.31-11.8-12.92,0-7.06,5.27-13.02,11.5-13.02,5.05,0,8.74,1.86,11.27,5.66v15.04Z"/></g></g><g><path class="cls-1" d="M0,36.91V2.6H8.43v13.48L20.49,2.6h10.64l-14.51,15.64,15.49,18.68h-10.78l-12.89-15.93v15.93H0Z"/><path class="cls-1" d="M38.93,0c2.6,0,4.71,2.01,4.71,4.61s-2.11,4.61-4.71,4.61-4.71-2.01-4.71-4.61,2.11-4.61,4.71-4.61Zm4.12,12.65v24.26h-8.24V12.65h8.24Z"/><path class="cls-1" d="M64.23,35.2c-1.81,1.32-3.97,2.21-6.42,2.21-6.91,0-12.06-5.59-12.06-12.6s5.2-12.65,11.86-12.65c2.21,0,4.17,.64,5.88,1.72V2.11h8.24V36.91h-7.5v-1.72Zm-.74-13.82c-.93-.93-2.55-1.72-4.51-1.72-2.84,0-5,2.26-5,5.15s2.06,5.1,5.15,5.1c1.86,0,3.48-.83,4.36-1.67v-6.86Z"/><path class="cls-1" d="M87.57,37.4c-3.92,0-7.75-1.13-11.08-3.82l3.53-4.76c1.86,1.27,4.12,2.16,6.62,2.16,1.81,0,2.6-.64,2.6-1.32,0-1.52-3.97-1.08-8.04-3.28-2.16-1.18-3.48-3.38-3.48-6.18,0-5.1,4.56-8.04,10-8.04,3.14,0,6.18,.83,8.87,2.89l-3.28,4.9c-1.37-.83-3.09-1.37-4.95-1.37-1.42,0-2.55,.39-2.55,1.18,0,1.22,4.9,1.22,8.04,3.19,2.01,1.23,3.48,2.99,3.48,6.13,0,5.2-4.46,8.33-9.75,8.33Z"/><path class="cls-1" d="M109.5,2.6h8.87l5.93,18.92,6.18-18.92h6.27l6.42,19.46,5.98-19.46h8.58l-11.03,34.31h-6.37l-6.76-19.51-6.67,19.51h-6.37L109.5,2.6Z"/><path class="cls-1" d="M175.16,35.2c-1.81,1.32-3.97,2.21-6.42,2.21-6.91,0-12.06-5.59-12.06-12.6s5.2-12.65,11.86-12.65c2.55,0,4.75,.88,6.62,2.21v-1.72h7.5v24.26h-7.5v-1.72Zm-.74-13.82c-.93-.93-2.55-1.72-4.51-1.72-2.84,0-5,2.26-5,5.15s2.06,5.1,5.15,5.1c1.86,0,3.48-.83,4.36-1.67v-6.86Z"/><path class="cls-1" d="M197.57,2.11V36.91h-8.24V2.11h8.24Z"/><path class="cls-1" d="M212.47,2.11V21.23l7.16-8.58h10.1l-9.95,11.32,11.42,12.94h-10.44l-8.28-9.8v9.8h-8.24V2.11h8.24Z"/><g><path class="cls-1" d="M256.13,13.18h6.7v6.35h-6.7v17.35h-8.21V19.54h-5.62v-6.35h5.62v-1.27c0-3.52,.88-5.77,2.44-7.43,1.76-1.91,4.5-2.79,7.19-2.79,2.44,0,4.99,.78,6.99,2.44l-3.18,5.43c-.44-.29-1.17-.78-2.3-.78-.73,0-1.71,.15-2.3,.78-.39,.44-.64,1.07-.64,1.86v1.76Z"/><path class="cls-1" d="M277.49,12.21c7.38,0,12.95,5.43,12.95,12.61s-5.57,12.56-12.95,12.56-12.95-5.38-12.95-12.56,5.57-12.61,12.95-12.61Zm0,7.33c-2.74,0-4.74,2.3-4.74,5.28s2,5.23,4.74,5.23,4.74-2.25,4.74-5.23-2-5.28-4.74-5.28Z"/><path class="cls-1" d="M310.66,19.93c-.59-.1-.98-.15-1.66-.15-2.54,0-4.94,.78-6.5,2.69v14.42h-8.21V12.7h7.48v2.44c1.47-1.52,3.96-2.69,7.38-2.69,.68,0,1.12,.05,1.52,.1v7.38Z"/></g></g></svg>