<?xml version="1.0" encoding="UTF-8"?><svg id="Layer_1" xmlns="http://www.w3.org/2000/svg" viewBox="0 0 594.85 68.47"><defs><style>.cls-1{fill:#064785;}</style></defs><rect class="cls-1" x="362.33" width="1.41" height="68.47"/><path class="cls-1" d="M396.82,34.74v-.12c0-10.91,7.84-21.01,20.1-21.01,6.39,0,10.34,1.92,14.41,5.28l-1.28,1.51c-3.54-2.96-7.26-4.99-13.25-4.99-10.81,0-17.95,9.17-17.95,19.15v.12c0,10.51,6.8,19.21,18.24,19.21,5.69,0,10.63-2.5,13.88-5.22v-12.48h-14.47v-1.92h16.38v15.15c-3.78,3.43-9.29,6.21-15.86,6.21-12.78,0-20.22-9.52-20.22-20.89"/><rect class="cls-1" x="444.31" y="14.31" width="1.97" height="40.63"/><polygon class="cls-1" points="454.39 14.31 456.54 14.31 473.51 52.74 490.47 14.31 492.5 14.31 474.26 55.23 472.64 55.23 454.39 14.31"/><rect class="cls-1" x="500.7" y="14.31" width="1.97" height="40.63"/><polygon class="cls-1" points="515.07 14.31 516.87 14.31 546.61 51.58 546.61 14.31 548.53 14.31 548.53 54.94 546.96 54.94 516.99 17.39 516.99 54.94 515.07 54.94 515.07 14.31"/><path class="cls-1" d="M558.77,34.74v-.12c0-10.91,7.84-21.01,20.1-21.01,6.39,0,10.34,1.92,14.41,5.28l-1.28,1.51c-3.54-2.96-7.26-4.99-13.25-4.99-10.81,0-17.95,9.17-17.95,19.15v.12c0,10.51,6.8,19.21,18.24,19.21,5.69,0,10.63-2.5,13.88-5.22v-12.48h-14.47v-1.92h16.38v15.15c-3.78,3.43-9.29,6.21-15.86,6.21-12.78,0-20.22-9.52-20.22-20.89"/><path class="cls-1" d="M74.86,29.17c2.13-.36,2.44-.93,2.44-3.13v-9.31c0-.89-.43-1.32-2.44-1.39v-1.03h5.7l4.36,12.02h.19l4.34-12.02h5.7v1.03c-2.01,.07-2.51,.29-2.51,1.03v11.63c0,.74,.5,.96,2.51,1.03v1.03h-7.01v-1.03c1.87-.07,2.08-.24,2.08-1.03v-11.7h-.17l-5.13,13.76h-.96l-5.2-13.76h-.17v9.74c0,2.2,.17,2.73,2.28,3.13v.89h-6.01v-.89Zm23.28-4.67c0,2.52,1.22,4.43,3.57,4.43,1.34,0,2.44-.81,3.4-1.98l.6,.6c-.88,1.49-2.27,2.78-4.69,2.78-3.35,0-5.2-2.42-5.2-5.58s2.08-5.79,5.2-5.79c3.4,0,4.66,2.77,4.48,5.48h-7.35v.07Zm5.05-1.05c.1-1.99-.65-3.57-2.35-3.57-1.46,0-2.46,1.03-2.68,3.69l5.03-.12Zm18.03-4.5c1.65,0,2.68,1.17,2.68,3.33v5.94c0,.58,.36,.82,1.74,.84v1h-5.29v-1c1.2-.02,1.39-.26,1.39-.84v-5.05c0-1.98-.67-2.56-2.06-2.56-.84,0-1.65,.43-2.61,1.1,.03,.22,.05,.46,.05,.72v5.79c0,.58,.21,.82,1.6,.84v1h-5.14v-1c1.19-.02,1.38-.26,1.38-.84v-5.05c0-1.98-.77-2.56-2.15-2.56-1.08,0-1.77,.46-2.47,.88v6.73c0,.58,.17,.82,1.37,.84v1h-5.27v-1c1.39-.02,1.75-.26,1.75-.84v-6.92c0-.72-.36-1.15-1.75-1.17v-1l3.86-.1v1.65c1.27-.88,2.47-1.72,4.04-1.72,1.22,0,2.18,.74,2.56,1.99,1.41-1.22,2.8-1.99,4.31-1.99m4.87,5.72c0-3.33,2.16-5.72,5.43-5.72s5.41,2.3,5.41,5.62-2.16,5.75-5.41,5.75c-3.43,0-5.43-2.3-5.43-5.65m8.45-.05c0-3.21-1.22-4.64-3.14-4.64s-2.92,1.44-2.92,4.64,1.22,4.67,3.14,4.67,2.92-1.46,2.92-4.67m3.19,4.43c1.39-.02,1.75-.26,1.75-.84v-6.92c0-.72-.36-1.15-1.75-1.17v-1l3.86-.1v1.87c.84-1.06,1.86-1.94,3.11-1.94s1.82,.84,1.82,1.79c0,.76-.55,1.41-1.29,1.41s-1.37-.41-1.37-1.27c0-.12,.03-.26,.05-.41-1.08-.05-1.77,.67-2.28,1.29v6.44c0,.58,.43,.82,2.01,.84v1h-5.91v-1Zm9.64,0c1.39-.02,1.75-.26,1.75-.84v-6.92c0-.72-.34-1.15-1.72-1.17v-1l3.88-.1v9.19c0,.58,.34,.82,1.75,.84v1h-5.65v-1Zm1.34-14.07c0-.89,.57-1.53,1.43-1.53s1.44,.59,1.44,1.48-.57,1.49-1.44,1.49-1.43-.55-1.43-1.44m5.29,12.71c0-.96,.46-1.94,1.46-2.49,1.82-1,4.67-1.42,5.03-1.7v-.67c0-2.13-.6-2.88-2.16-2.88-.77,0-1.2,.17-1.61,.53,.19,.41,.27,.79,.27,1.12,0,.72-.46,1.32-1.27,1.32s-1.32-.62-1.32-1.32c0-1.58,1.96-2.65,4.26-2.65,2.49,0,3.97,1.12,3.97,3.42v5.22c0,1.17,.17,1.51,1.75,1.31l.09,.79c-.86,.31-1.39,.45-2.08,.45-1.27,0-1.63-.48-1.75-1.84h-.17c-.96,1.08-2.11,1.89-3.52,1.89-2.01,0-2.97-1.15-2.97-2.51m6.49-.39v-2.87c-3.4,.77-4.07,1.27-4.07,2.71,0,.86,.45,1.63,1.7,1.63,.96,0,1.84-.72,2.37-1.46m4.7,1.75c1.39-.02,1.77-.26,1.77-.84V15.65c0-.72-.46-1.15-1.84-1.17v-1l4-.09v14.84c0,.58,.36,.82,1.77,.84v1h-5.7v-1Zm10.99-3.66h.93c1.27,2.78,2.87,3.83,4.86,3.83,2.22,0,3.09-1.41,3.09-2.66,0-1.68-1.12-2.37-4.03-3.4-2.18-.77-4.57-1.48-4.57-4.43s2.42-4.81,5.38-4.81c1.34,0,2.18,.31,2.95,.6l.82-.72h.67v4.62h-.93c-.79-2.18-2.06-3.28-3.93-3.28-1.53,0-2.73,.96-2.73,2.54s1.23,2.22,3.78,3.09c2.18,.74,4.55,1.51,4.55,4.48,0,2.37-1.46,5.2-5.43,5.2-1.29,0-2.52-.34-3.42-.72l-1.27,.81h-.72v-5.15Zm11.68,3.66c1.39-.02,1.77-.26,1.77-.84V15.65c0-.72-.46-1.15-1.85-1.17v-1l4-.09v14.84c0,.58,.36,.82,1.78,.84v1h-5.7v-1Zm6.14-4.38c0-3.33,2.15-5.72,5.43-5.72s5.41,2.3,5.41,5.62-2.16,5.75-5.41,5.75c-3.43,0-5.43-2.3-5.43-5.65m8.45-.05c0-3.21-1.22-4.64-3.14-4.64s-2.92,1.44-2.92,4.64,1.22,4.67,3.14,4.67,2.92-1.46,2.92-4.67m3.57,3.07c0-.96,.45-1.94,1.46-2.49,1.82-1,4.67-1.42,5.03-1.7v-.67c0-2.13-.6-2.88-2.16-2.88-.77,0-1.2,.17-1.6,.53,.19,.41,.26,.79,.26,1.12,0,.72-.45,1.32-1.27,1.32s-1.32-.62-1.32-1.32c0-1.58,1.96-2.65,4.26-2.65,2.49,0,3.97,1.12,3.97,3.42v5.22c0,1.17,.17,1.51,1.75,1.31l.1,.79c-.87,.31-1.39,.45-2.09,.45-1.27,0-1.62-.48-1.74-1.84h-.17c-.96,1.08-2.1,1.89-3.52,1.89-2.01,0-2.97-1.15-2.97-2.51m6.49-.39v-2.87c-3.4,.77-4.07,1.27-4.07,2.71,0,.86,.45,1.63,1.7,1.63,.96,0,1.84-.72,2.37-1.46m4.79,1.75c1.39-.02,1.75-.26,1.75-.84v-6.92c0-.72-.36-1.15-1.75-1.17v-1l3.86-.1v1.65c1.27-.88,2.68-1.72,4.26-1.72s2.78,1.17,2.78,3.33v5.94c0,.58,.33,.82,1.75,.84v1h-5.43v-1c1.22-.02,1.53-.26,1.53-.84v-5.07c0-1.99-.74-2.54-2.13-2.54-1.08,0-2.01,.46-2.71,.88v6.73c0,.58,.31,.82,1.51,.84v1h-5.41v-1Zm22.02-1.06c0,.79,.14,.96,1.99,1.03v1.03h-6.92v-1.03c2.01-.07,2.51-.29,2.51-1.03v-11.63c0-.74-.5-.96-2.51-1.03v-1.03h7.2v1.03c-2.13,.07-2.27,.24-2.27,1.03v6.13l5.14-5.19c1.2-1.2,1.13-1.84-.72-2.06v-.93h6.2v.88c-1.75,.27-2.49,.72-4.21,2.4l-3.18,3.11,4.65,6.32c.9,1.19,1.27,1.75,3.23,2.06v.98h-6.97v-.96c1.7-.22,2.06-.62,1.25-1.72l-3.71-5.17-1.68,1.63v4.16Zm13.86-3.49c0,2.52,1.22,4.43,3.57,4.43,1.34,0,2.44-.81,3.4-1.98l.6,.6c-.89,1.49-2.28,2.78-4.69,2.78-3.35,0-5.2-2.42-5.2-5.58s2.08-5.79,5.2-5.79c3.4,0,4.67,2.77,4.48,5.48h-7.35v.07Zm5.05-1.05c.1-1.99-.64-3.57-2.35-3.57-1.46,0-2.46,1.03-2.68,3.69l5.03-.12Zm4.83,3.88v-7.03h-1.96v-.79l2.01-.43v-3.09l2.11-.86v4h3.4v1.17h-3.4v6.77c0,1.32,.42,1.86,1.43,1.86,.67,0,1.15-.5,1.7-1.27l.65,.5c-.89,1.6-1.68,2.16-3.21,2.16-1.82,0-2.73-1.13-2.73-3m8.4,0v-7.03h-1.96v-.79l2.01-.43v-3.09l2.11-.86v4h3.4v1.17h-3.4v6.77c0,1.32,.43,1.86,1.44,1.86,.67,0,1.15-.5,1.7-1.27l.65,.5c-.88,1.6-1.68,2.16-3.21,2.16-1.82,0-2.73-1.13-2.73-3m8.82-2.82c0,2.52,1.22,4.43,3.57,4.43,1.34,0,2.44-.81,3.4-1.98l.6,.6c-.89,1.49-2.28,2.78-4.7,2.78-3.35,0-5.2-2.42-5.2-5.58s2.09-5.79,5.2-5.79c3.4,0,4.67,2.77,4.48,5.48h-7.35v.07Zm5.05-1.05c.1-1.99-.65-3.57-2.35-3.57-1.46,0-2.47,1.03-2.68,3.69l5.03-.12Zm3.27,5.6c1.39-.02,1.75-.26,1.75-.84v-6.92c0-.72-.36-1.15-1.75-1.17v-1l3.86-.1v1.87c.84-1.06,1.86-1.94,3.11-1.94s1.82,.84,1.82,1.79c0,.76-.55,1.41-1.29,1.41s-1.36-.41-1.36-1.27c0-.12,.03-.26,.05-.41-1.08-.05-1.77,.67-2.27,1.29v6.44c0,.58,.43,.82,2.01,.84v1h-5.92v-1Zm9.64,0c1.39-.02,1.75-.26,1.75-.84v-6.92c0-.72-.33-1.15-1.73-1.17v-1l3.88-.1v9.19c0,.58,.33,.82,1.75,.84v1h-5.65v-1Zm1.34-14.07c0-.89,.58-1.53,1.44-1.53s1.44,.59,1.44,1.48-.58,1.49-1.44,1.49-1.44-.55-1.44-1.44m5.31,14.07c1.39-.02,1.75-.26,1.75-.84v-6.92c0-.72-.36-1.15-1.75-1.17v-1l3.85-.1v1.65c1.27-.88,2.68-1.72,4.26-1.72s2.78,1.17,2.78,3.33v5.94c0,.58,.33,.82,1.75,.84v1h-5.43v-1c1.22-.02,1.53-.26,1.53-.84v-5.07c0-1.99-.74-2.54-2.13-2.54-1.08,0-2.01,.46-2.7,.88v6.73c0,.58,.31,.82,1.51,.84v1h-5.41v-1Zm22.6-11.63c.84,0,1.32,.5,1.32,1.22,0,.62-.38,1.05-.94,1.05-.62,0-1.06-.41-1.06-1.13-.48,.17-1.07,.6-1.38,1.05,1.03,.6,1.73,1.63,1.73,3.02,0,2.32-1.87,3.76-4.31,3.76-.5,0-.98-.05-1.44-.17-.62,.31-.96,.65-.96,1.05,0,.48,.33,.96,2.27,.96h1.1c3.16,0,4.57,.77,4.57,2.78s-1.96,3.94-5.79,3.94c-3.14,0-4.81-1.21-4.81-2.62,0-1.1,1.05-2.11,2.92-2.42v-.17c-1.41-.34-1.92-.91-1.92-1.87,0-.72,.65-1.44,1.68-1.96-1.18-.55-1.97-1.6-1.97-3.18,0-2.3,1.87-3.78,4.34-3.78,.67,0,1.34,.12,1.91,.33,.53-.98,1.51-1.86,2.73-1.86m-.86,14.38c0-.98-.55-1.63-2.95-1.63h-1.96c-1.27,.24-2.11,.91-2.11,1.91,0,1.13,1.22,1.87,3.61,1.87,2.04,0,3.4-.98,3.4-2.16m-1.73-9.12c0-1.82-.91-2.85-2.15-2.85s-2.01,.65-2.01,2.85,.96,2.82,2.18,2.82,1.99-.76,1.99-2.82M74.98,47.26c0-4.81,3.61-8.45,8.14-8.45,1.65,0,2.9,.55,3.78,1.08l.72-1h.88v5.43h-.79c-1.05-2.7-2.49-4.28-4.83-4.28-2.75,0-5.17,2.49-5.17,7.13,0,4.41,2.76,6.63,5.61,6.63s3.97-1.46,4.95-3.47l.96,.47c-.98,2.28-3.04,4.53-6.53,4.53-4.5,0-7.71-3.21-7.71-8.07m15.39,5.31c0-.96,.46-1.94,1.46-2.49,1.82-1,4.67-1.41,5.03-1.7v-.67c0-2.13-.6-2.87-2.16-2.87-.77,0-1.2,.17-1.6,.53,.19,.41,.26,.79,.26,1.13,0,.72-.46,1.32-1.27,1.32s-1.32-.62-1.32-1.32c0-1.58,1.96-2.66,4.26-2.66,2.49,0,3.98,1.12,3.98,3.42v5.22c0,1.18,.17,1.51,1.75,1.32l.1,.79c-.86,.31-1.39,.45-2.09,.45-1.27,0-1.62-.48-1.75-1.84h-.16c-.96,1.08-2.11,1.89-3.52,1.89-2.01,0-2.97-1.15-2.97-2.51m6.49-.38v-2.87c-3.4,.77-4.07,1.27-4.07,2.71,0,.86,.46,1.63,1.7,1.63,.96,0,1.84-.72,2.37-1.46m4.79,1.75c1.39-.03,1.75-.26,1.75-.84v-6.92c0-.71-.36-1.15-1.75-1.17v-1.01l3.85-.1v1.65c1.27-.89,2.68-1.72,4.26-1.72s2.78,1.18,2.78,3.33v5.94c0,.58,.33,.81,1.74,.84v1h-5.43v-1c1.22-.03,1.53-.26,1.53-.84v-5.07c0-1.99-.74-2.54-2.13-2.54-1.08,0-2.01,.46-2.7,.88v6.73c0,.58,.31,.81,1.51,.84v1h-5.41v-1Zm13.07-4.31c0-3.33,2.37-5.79,5.36-5.79,2.49,0,3.95,1.34,3.95,2.71,0,.89-.56,1.6-1.37,1.6s-1.34-.5-1.34-1.22c0-.65,.43-1.1,.77-1.29-.29-.38-1.05-.77-1.96-.77-1.8,0-3.11,1.2-3.11,4.24,0,2.85,1.27,4.66,3.59,4.66,1.32,0,2.37-.74,3.19-1.68l.6,.6c-1,1.46-2.25,2.51-4.55,2.51-3.14,0-5.12-2.39-5.12-5.58m12.69-.24c0,2.51,1.22,4.43,3.57,4.43,1.34,0,2.44-.81,3.4-1.99l.6,.6c-.89,1.48-2.27,2.78-4.69,2.78-3.35,0-5.19-2.42-5.19-5.58s2.08-5.79,5.19-5.79c3.4,0,4.67,2.77,4.48,5.48h-7.35v.07Zm5.05-1.05c.1-1.99-.64-3.57-2.34-3.57-1.46,0-2.47,1.03-2.68,3.69l5.03-.12Zm3.27,5.6c1.39-.03,1.75-.26,1.75-.84v-6.92c0-.71-.36-1.15-1.75-1.17v-1.01l3.85-.1v1.87c.84-1.06,1.87-1.94,3.11-1.94s1.82,.84,1.82,1.8c0,.76-.55,1.41-1.3,1.41s-1.36-.41-1.36-1.27c0-.12,.03-.26,.05-.41-1.08-.05-1.77,.67-2.27,1.29v6.44c0,.58,.43,.81,2.01,.84v1h-5.91v-1Zm13.4-6.68c0-4.81,3.62-8.45,8.14-8.45,1.65,0,2.9,.55,3.78,1.08l.71-1h.89v5.43h-.79c-1.06-2.7-2.49-4.28-4.84-4.28-2.75,0-5.17,2.49-5.17,7.13,0,4.41,2.75,6.63,5.6,6.63s3.97-1.46,4.96-3.47l.96,.47c-.98,2.28-3.04,4.53-6.54,4.53-4.5,0-7.71-3.21-7.71-8.07m17.8,2.13c0,2.51,1.22,4.43,3.57,4.43,1.34,0,2.45-.81,3.4-1.99l.6,.6c-.89,1.48-2.27,2.78-4.69,2.78-3.35,0-5.19-2.42-5.19-5.58s2.08-5.79,5.19-5.79c3.4,0,4.67,2.77,4.48,5.48h-7.35v.07Zm5.05-1.05c.1-1.99-.65-3.57-2.34-3.57-1.47,0-2.47,1.03-2.68,3.69l5.02-.12Zm3.27,5.6c1.39-.03,1.75-.26,1.75-.84v-6.92c0-.71-.36-1.15-1.75-1.17v-1.01l3.85-.1v1.65c1.27-.89,2.68-1.72,4.26-1.72s2.77,1.18,2.77,3.33v5.94c0,.58,.34,.81,1.75,.84v1h-5.43v-1c1.22-.03,1.54-.26,1.54-.84v-5.07c0-1.99-.74-2.54-2.13-2.54-1.07,0-2.01,.46-2.7,.88v6.73c0,.58,.31,.81,1.51,.84v1h-5.41v-1Zm14.36-1.72v-7.03h-1.96v-.79l2.01-.43v-3.09l2.1-.86v4h3.4v1.18h-3.4v6.77c0,1.31,.43,1.87,1.44,1.87,.67,0,1.15-.5,1.7-1.27l.65,.5c-.89,1.6-1.68,2.15-3.21,2.15-1.82,0-2.72-1.13-2.72-2.99m8.81-2.82c0,2.51,1.23,4.43,3.57,4.43,1.34,0,2.44-.81,3.4-1.99l.6,.6c-.89,1.48-2.27,2.78-4.69,2.78-3.35,0-5.19-2.42-5.19-5.58s2.08-5.79,5.19-5.79c3.4,0,4.67,2.77,4.48,5.48h-7.35v.07Zm5.05-1.05c.1-1.99-.64-3.57-2.35-3.57-1.46,0-2.46,1.03-2.68,3.69l5.03-.12Zm3.27,5.6c1.39-.03,1.75-.26,1.75-.84v-6.92c0-.71-.36-1.15-1.75-1.17v-1.01l3.85-.1v1.87c.84-1.06,1.87-1.94,3.11-1.94s1.82,.84,1.82,1.8c0,.76-.55,1.41-1.3,1.41s-1.36-.41-1.36-1.27c0-.12,.02-.26,.05-.41-1.08-.05-1.77,.67-2.27,1.29v6.44c0,.58,.43,.81,2.01,.84v1h-5.91v-1ZM31.97,31.66h8.24v3.43h-8.24v3.05h8.17v3.43h-8.17v3.06h8.24v3.42h-8.24v9.42h-3.42v-9.42h-8.24v-3.42h8.24v-3.06h-8.24v-3.43h8.24v-3.05h-8.24v-3.43h8.24v-13.73l-7.43,7.43-2.42-2.42,11.57-11.58,11.56,11.56-2.42,2.42-7.46-7.46v13.79Zm28.62,2.79c-.03,4.2-.44,8.05-1.24,11.51-2.64,11.53-9.42,18.88-19.84,21.46-2.79,.69-5.83,1.04-9.13,1.04h-.33c-3.3-.03-6.35-.39-9.13-1.1-10.43-2.63-17.18-9.96-19.75-21.4C.36,42.39-.03,38.4,0,34.02c.03-4.32,.47-8.26,1.3-11.81C3.87,11.36,10.15,4.27,19.71,1.42,22.86,.47,26.36,0,30.21,0h.32c3.69,.02,7.06,.48,10.11,1.36,9.8,2.81,16.19,9.95,18.72,20.89,.84,3.65,1.26,7.72,1.22,12.2m-3.68-.02c.03-3.84-.29-7.89-1.22-11.74-1.89-7.83-6.28-14.87-15.39-17.82-2.84-.92-6.14-1.45-9.97-1.47h-.3c-3.99,0-7.41,.55-10.33,1.54C10.78,7.95,6.46,15.01,4.58,22.82c-.89,3.7-1.24,7.56-1.26,11.24-.03,3.89,.3,8,1.26,11.91,1.97,8.01,6.59,15.18,16.26,17.93,2.63,.75,5.63,1.17,9.06,1.2h.3c3.4,0,6.37-.4,8.99-1.13,9.68-2.7,14.35-9.9,16.37-17.95,.95-3.8,1.32-7.79,1.35-11.58"/></svg>
