<?xml version="1.0" encoding="utf-8"?>
<svg version="1.1" id="Layer_1" xmlns="http://www.w3.org/2000/svg" xmlns:xlink="http://www.w3.org/1999/xlink" x="0px" y="0px"
	 viewBox="0 0 35 29.3" style="enable-background:new 0 0 35 29.3;" xml:space="preserve">
<rect y="16.3" width="35" height="2"/>
<rect y="27.3" width="35" height="2"/>
<g>
	<path d="M0.7,0.1h0.8L4.1,4l2.6-3.9h0.8v7.1H6.7V1.4L4.1,5.2h0L1.5,1.4v5.7H0.7V0.1z"/>
	<path d="M10.9,0.1h5.1v0.7h-4.3v2.4h3.9V4h-3.9v2.5h4.4v0.7h-5.2C10.9,7.2,10.9,0.1,10.9,0.1z"/>
	<path d="M19,0.1h0.8l4.5,5.7V0.1H25v7.1h-0.6l-4.6-5.8v5.8H19V0.1z"/>
	<path d="M28.4,4.2V0.1h0.8v4.1c0,1.5,0.8,2.4,2.2,2.4c1.3,0,2.1-0.8,2.1-2.3V0.1h0.8v4.1c0,2.1-1.2,3.1-3,3.1
		C29.6,7.3,28.4,6.2,28.4,4.2z"/>
</g>
</svg>
